<svg width="100%" viewBox="0 0 690 240" xmlns="http://www.w3.org/2000/svg" role="img" style="">
<title style="fill:rgb(0, 0, 0);stroke:none;color:rgb(0, 0, 0);stroke-width:1px;stroke-linecap:butt;stroke-linejoin:miter;opacity:1;font-family:&quot;Anthropic Sans&quot;, -apple-system, BlinkMacSystemFont, &quot;Segoe UI&quot;, sans-serif;font-size:16px;font-weight:400;text-anchor:start;dominant-baseline:auto">BookMyShow style logo</title>
<desc style="fill:rgb(0, 0, 0);stroke:none;color:rgb(0, 0, 0);stroke-width:1px;stroke-linecap:butt;stroke-linejoin:miter;opacity:1;font-family:&quot;Anthropic Sans&quot;, -apple-system, BlinkMacSystemFont, &quot;Segoe UI&quot;, sans-serif;font-size:16px;font-weight:400;text-anchor:start;dominant-baseline:auto">A red rounded square icon with a white film ticket shape and a play triangle, next to the text BookMyShow</desc>

<rect x="240" y="40" width="160" height="160" rx="28" fill="#cc0000" style="fill:rgb(204, 0, 0);stroke:none;color:rgb(0, 0, 0);stroke-width:1px;stroke-linecap:butt;stroke-linejoin:miter;opacity:1;font-family:&quot;Anthropic Sans&quot;, -apple-system, BlinkMacSystemFont, &quot;Segoe UI&quot;, sans-serif;font-size:16px;font-weight:400;text-anchor:start;dominant-baseline:auto"/>

<g transform="translate(320,120)" style="fill:rgb(0, 0, 0);stroke:none;color:rgb(0, 0, 0);stroke-width:1px;stroke-linecap:butt;stroke-linejoin:miter;opacity:1;font-family:&quot;Anthropic Sans&quot;, -apple-system, BlinkMacSystemFont, &quot;Segoe UI&quot;, sans-serif;font-size:16px;font-weight:400;text-anchor:start;dominant-baseline:auto">
  <path d="M -45 -30 L 45 -30 Q 52 -30 52 -23 Q 52 -16 45 -16 Q 38 -16 38 -9 Q 38 -2 45 -2 Q 52 -2 52 5 Q 52 12 45 12 Q 38 12 38 19 Q 38 26 45 26 L -45 26 Q -52 26 -52 19 Q -52 12 -45 12 Q -38 12 -38 5 Q -38 -2 -45 -2 Q -52 -2 -52 -9 Q -52 -16 -45 -16 Q -38 -16 -38 -23 Q -38 -30 -45 -30 Z" fill="white" style="fill:rgb(255, 255, 255);stroke:none;color:rgb(0, 0, 0);stroke-width:1px;stroke-linecap:butt;stroke-linejoin:miter;opacity:1;font-family:&quot;Anthropic Sans&quot;, -apple-system, BlinkMacSystemFont, &quot;Segoe UI&quot;, sans-serif;font-size:16px;font-weight:400;text-anchor:start;dominant-baseline:auto"/>
  <path d="M -8 -14 L 16 0 L -8 14 Z" fill="#cc0000" style="fill:rgb(204, 0, 0);stroke:none;color:rgb(0, 0, 0);stroke-width:1px;stroke-linecap:butt;stroke-linejoin:miter;opacity:1;font-family:&quot;Anthropic Sans&quot;, -apple-system, BlinkMacSystemFont, &quot;Segoe UI&quot;, sans-serif;font-size:16px;font-weight:400;text-anchor:start;dominant-baseline:auto"/>
</g>

<text x="410.68" y="135" font-family="var(--font-sans)" font-size="44" font-weight="500" fill="#cc0000" style="fill:rgb(204, 0, 0);stroke:none;color:rgb(0, 0, 0);stroke-width:1px;stroke-linecap:butt;stroke-linejoin:miter;opacity:1;font-family:&quot;Anthropic Sans&quot;, sans-serif;font-size:44px;font-weight:500;text-anchor:start;dominant-baseline:auto">BookMyShow</text>

</svg>