<svg xmlns="http://www.w3.org/2000/svg" viewBox="0 0 160 160">

  <rect x="0" y="0" width="160" height="160" rx="28" fill="#cc0000"></rect>

  <g transform="translate(80,80)">
    <path d="M -45 -30 L 45 -30 Q 52 -30 52 -23 Q 52 -16 45 -16 Q 38 -16 38 -9 Q 38 -2 45 -2 Q 52 -2 52 5 Q 52 12 45 12 Q 38 12 38 19 Q 38 26 45 26 L -45 26 Q -52 26 -52 19 Q -52 12 -45 12 Q -38 12 -38 5 Q -38 -2 -45 -2 Q -52 -2 -52 -9 Q -52 -16 -45 -16 Q -38 -16 -38 -23 Q -38 -30 -45 -30 Z" fill="white"></path>
    <path d="M -8 -14 L 16 0 L -8 14 Z" fill="#cc0000"></path>
  </g>
</svg>